HIERARCHY
ROOT Hips
{
  OFFSET 5.80788e-005 67.184 3.4734
  CHANNELS 6 Xposition Yposition Zposition Zrotation Xrotation Yrotation
  JOINT Chest
  {
    OFFSET 0 8.7983 -4.7612
    CHANNELS 3 Zrotation Xrotation Yrotation
    JOINT Chest2
    {
      OFFSET 0 8.0291 0.4195
      CHANNELS 3 Zrotation Xrotation Yrotation
      JOINT Chest3
      {
        OFFSET 0 9.9351 -2.2114
        CHANNELS 3 Zrotation Xrotation Yrotation
        JOINT Neck
        {
          OFFSET 0 22.3885 -0.4656
          CHANNELS 3 Zrotation Xrotation Yrotation
          JOINT Head
          {
            OFFSET -0.0001 12.643 3.4389
            CHANNELS 3 Zrotation Xrotation Yrotation
            End Site
            {
              OFFSET 0.0001 17.6655 0.5274
            }
          }
        }
        JOINT LeftCollar
        {
          OFFSET 2.2603 21.606 7.4023
          CHANNELS 3 Zrotation Xrotation Yrotation
          JOINT LeftShoulder
          {
            OFFSET 13.5163 -1.1332 -5.0146
            CHANNELS 3 Zrotation Xrotation Yrotation
            JOINT LeftElbow
            {
              OFFSET -0.0995 -28.05 -0.2431
              CHANNELS 3 Zrotation Xrotation Yrotation
              JOINT LeftWrist
              {
                OFFSET 0.0679 -23.3996 -0.1402
                CHANNELS 3 Zrotation Xrotation Yrotation
                JOINT LeftFinger1
                {
                  OFFSET 0.7932 -9.069 2.5189
                  CHANNELS 3 Zrotation Xrotation Yrotation
                  JOINT LeftFinger11
                  {
                    OFFSET -0.8272 -3.3923 0.5977
                    CHANNELS 3 Zrotation Xrotation Yrotation
                    JOINT LeftFinger12
                    {
                      OFFSET -0.5649 -2.3158 0.4082
                      CHANNELS 3 Zrotation Xrotation Yrotation
                      End Site
                      {
                        OFFSET -0.4919 -1.6479 0.2673
                      }
                    }
                  }
                }
                JOINT LeftFinger2
                {
                  OFFSET 0.9159 -9.2044 0.2193
                  CHANNELS 3 Zrotation Xrotation Yrotation
                  JOINT LeftFinger21
                  {
                    OFFSET 0.0117 -4.1944 -0.0248
                    CHANNELS 3 Zrotation Xrotation Yrotation
                    JOINT LeftFinger22
                    {
                      OFFSET 0.0071 -2.3249 -0.0142
                      CHANNELS 3 Zrotation Xrotation Yrotation
                      End Site
                      {
                        OFFSET -0.1475 -2.0882 0.0028
                      }
                    }
                  }
                }
                JOINT LeftFinger3
                {
                  OFFSET 0.6113 -8.7231 -2.0637
                  CHANNELS 3 Zrotation Xrotation Yrotation
                  JOINT LeftFinger31
                  {
                    OFFSET -0.1927 -3.8059 -0.2383
                    CHANNELS 3 Zrotation Xrotation Yrotation
                    JOINT LeftFinger32
                    {
                      OFFSET -0.1091 -2.1688 -0.1362
                      CHANNELS 3 Zrotation Xrotation Yrotation
                      End Site
                      {
                        OFFSET -0.2358 -1.9176 -0.0906
                      }
                    }
                  }
                }
                JOINT LeftFinger4
                {
                  OFFSET -0.6151 -8.0947 -3.5641
                  CHANNELS 3 Zrotation Xrotation Yrotation
                  JOINT LeftFinger41
                  {
                    OFFSET -0.4882 -2.341 -0.6462
                    CHANNELS 3 Zrotation Xrotation Yrotation
                    JOINT LeftFinger42
                    {
                      OFFSET -0.3575 -1.7167 -0.4742
                      CHANNELS 3 Zrotation Xrotation Yrotation
                      End Site
                      {
                        OFFSET -0.4187 -1.5237 -0.3496
                      }
                    }
                  }
                }
                JOINT LeftFinger0
                {
                  OFFSET -1.42 -1.8761 1.4223
                  CHANNELS 3 Zrotation Xrotation Yrotation
                  JOINT LeftFinger01
                  {
                    OFFSET -1.1471 -3.4929 2.6334
                    CHANNELS 3 Zrotation Xrotation Yrotation
                    JOINT LeftFinger02
                    {
                      OFFSET -0.823 -2.3 1.6571
                      CHANNELS 3 Zrotation Xrotation Yrotation
                      End Site
                      {
                        OFFSET -0.5822 -1.6914 1.1582
                      }
                    }
                  }
                }
              }
            }
          }
        }
        JOINT RightCollar
        {
          OFFSET -2.2603 21.606 7.4023
          CHANNELS 3 Zrotation Xrotation Yrotation
          JOINT RightShoulder
          {
            OFFSET -13.5187 -1.1334 -5.0155
            CHANNELS 3 Zrotation Xrotation Yrotation
            JOINT RightElbow
            {
              OFFSET 0.0994 -28.0499 -0.2431
              CHANNELS 3 Zrotation Xrotation Yrotation
              JOINT RightWrist
              {
                OFFSET -0.0679 -23.3996 -0.1402
                CHANNELS 3 Zrotation Xrotation Yrotation
                JOINT RightFinger1
                {
                  OFFSET -0.7932 -9.0691 2.5189
                  CHANNELS 3 Zrotation Xrotation Yrotation
                  JOINT RightFinger11
                  {
                    OFFSET 0.8272 -3.3923 0.5977
                    CHANNELS 3 Zrotation Xrotation Yrotation
                    JOINT RightFinger12
                    {
                      OFFSET 0.565 -2.3158 0.4082
                      CHANNELS 3 Zrotation Xrotation Yrotation
                      End Site
                      {
                        OFFSET 0.4919 -1.6479 0.2673
                      }
                    }
                  }
                }
                JOINT RightFinger2
                {
                  OFFSET -0.916 -9.2044 0.2193
                  CHANNELS 3 Zrotation Xrotation Yrotation
                  JOINT RightFinger21
                  {
                    OFFSET -0.0117 -4.1944 -0.0248
                    CHANNELS 3 Zrotation Xrotation Yrotation
                    JOINT RightFinger22
                    {
                      OFFSET -0.0071 -2.3249 -0.0142
                      CHANNELS 3 Zrotation Xrotation Yrotation
                      End Site
                      {
                        OFFSET 0.1475 -2.0882 0.0028
                      }
                    }
                  }
                }
                JOINT RightFinger3
                {
                  OFFSET -0.6113 -8.7231 -2.0637
                  CHANNELS 3 Zrotation Xrotation Yrotation
                  JOINT RightFinger31
                  {
                    OFFSET 0.1927 -3.8059 -0.2383
                    CHANNELS 3 Zrotation Xrotation Yrotation
                    JOINT RightFinger32
                    {
                      OFFSET 0.1091 -2.1688 -0.1362
                      CHANNELS 3 Zrotation Xrotation Yrotation
                      End Site
                      {
                        OFFSET 0.2358 -1.9176 -0.0906
                      }
                    }
                  }
                }
                JOINT RightFinger4
                {
                  OFFSET 0.6151 -8.0947 -3.564
                  CHANNELS 3 Zrotation Xrotation Yrotation
                  JOINT RightFinger41
                  {
                    OFFSET 0.4882 -2.341 -0.6462
                    CHANNELS 3 Zrotation Xrotation Yrotation
                    JOINT RightFinger42
                    {
                      OFFSET 0.3574 -1.7166 -0.4742
                      CHANNELS 3 Zrotation Xrotation Yrotation
                      End Site
                      {
                        OFFSET 0.4187 -1.5237 -0.3496
                      }
                    }
                  }
                }
                JOINT RightFinger0
                {
                  OFFSET 1.4199 -1.8761 1.4221
                  CHANNELS 3 Zrotation Xrotation Yrotation
                  JOINT RightFinger01
                  {
                    OFFSET 1.1472 -3.4929 2.6336
                    CHANNELS 3 Zrotation Xrotation Yrotation
                    JOINT RightFinger02
                    {
                      OFFSET 0.8229 -2.3 1.6571
                      CHANNELS 3 Zrotation Xrotation Yrotation
                      End Site
                      {
                        OFFSET 0.5822 -1.6914 1.1582
                      }
                    }
                  }
                }
              }
            }
          }
        }
      }
    }
  }
  JOINT RightHip
  {
    OFFSET -9.412 3.9771 -0.7758
    CHANNELS 3 Zrotation Xrotation Yrotation
    JOINT RightKnee
    {
      OFFSET -0.7531 -40.938 0
      CHANNELS 3 Zrotation Xrotation Yrotation
      JOINT RightAnkle
      {
        OFFSET 0 -40.1986 0
        CHANNELS 3 Zrotation Xrotation Yrotation
        JOINT RightToe
        {
          OFFSET 0 -4.4182 9.239
          CHANNELS 3 Zrotation Xrotation Yrotation
          End Site
          {
            OFFSET 0 0 6.1981
          }
        }
      }
    }
  }
  JOINT LeftHip
  {
    OFFSET 9.4119 3.9773 -0.7758
    CHANNELS 3 Zrotation Xrotation Yrotation
    JOINT LeftKnee
    {
      OFFSET 0.7532 -40.9383 0
      CHANNELS 3 Zrotation Xrotation Yrotation
      JOINT LeftAnkle
      {
        OFFSET 0 -40.1986 0
        CHANNELS 3 Zrotation Xrotation Yrotation
        JOINT LeftToe
        {
          OFFSET 0 -4.4182 9.239
          CHANNELS 3 Zrotation Xrotation Yrotation
          End Site
          {
            OFFSET 0 0 6.1981
          }
        }
      }
    }
  }
}
MOTION
Frames:	6
Frame Time:	0.0333333
0.462685 70.126 12.0176 -1.13336e-014 31.6011 -180 -0.614886 5.44607 -0.214681 -1.21748 10.8941 -0.372874 -1.21748 10.8941 -0.372874 12.0357 4.53064 -18.9681 11.3432 -36.5698 7.12341 -22.172 -15.6683 -47.2808 86.265 -4.36749 33.9622 -23.0602 -24.3443 -6.46743 -56.5893 12.3966 12.4259 3.18055e-015 4.77083e-015 -1.59028e-015 3.16891e-006 1.86193e-006 -7.8568e-007 3.18055e-015 3.18055e-015 -6.36111e-015 3.18055e-015 4.77083e-015 -1.59028e-015 -0.0128361 0.0023341 9.03071e-005 -9.54166e-015 -9.54166e-015 -1.59028e-015 3.18055e-015 4.77083e-015 -1.59028e-015 -0.0159757 0.00297828 0.00085124 -1.27222e-014 -1.59028e-015 -0 3.18055e-015 4.77083e-015 -1.59028e-015 -0.0125154 0.00311065 0.0028196 7.8484e-007 1.04518e-006 -1.47142e-006 3.18055e-015 4.77083e-015 -1.59028e-015 3.16891e-006 1.86193e-006 -7.8568e-007 3.18055e-015 3.18055e-015 -6.36111e-015 11.387 -6.43651 12.6823 -48.7828 -9.344 -20.4565 33.1334 1.11205 9.0087 45.7249 -0.731832 -3.0975 -3.18055e-015 6.36111e-015 -9.54166e-015 -7.95139e-016 -1.28517e-006 -3.18055e-015 -1.11319e-014 -1.81532e-006 -3.18055e-015 -3.18055e-015 6.36111e-015 -9.54166e-015 0.01297 0.00232102 -9.20864e-005 7.95139e-015 -3.18055e-015 3.18055e-015 -3.18055e-015 6.36111e-015 -9.54166e-015 0.016317 0.00303107 -0.0008814 -2.38542e-015 0 -0 -3.18055e-015 6.36111e-015 -9.54166e-015 0.0145602 0.00366448 -0.00325371 3.18055e-015 -3.18055e-015 -0 -3.18055e-015 6.36111e-015 -9.54166e-015 -7.95139e-016 -1.28517e-006 -3.18055e-015 -1.11319e-014 -1.81532e-006 -3.18055e-015 -173.834 -30.0989 176.948 -129.528 41.89 106.733 3.43412 -5.76878 21.5197 3.26177e-006 2.56175e-006 3.93049e-007 98.3822 -25.4945 115.631 -158.393 32.8535 121.364 15.8348 30.6236 13.8733 -7.03486e-009 -2.10756e-010 1.06462e-007 
0.426559 70.3698 12.0193 -1.12831e-014 31.301 -180 -0.616049 5.3108 -0.215293 -1.21987 10.6236 -0.375373 -1.21987 10.6236 -0.375374 12.0698 6.22637 -19.3318 11.2213 -36.3039 7.02692 -22.4544 -15.0995 -46.5669 86.2228 -4.61775 33.9332 -23.5252 -24.7364 -6.68988 -56.1492 12.6365 12.2281 9.10456e-022 1.09342e-005 -4.77083e-015 6.36111e-015 -1.09342e-005 1.59028e-015 1.32417e-031 1.59028e-015 -4.77083e-015 9.10456e-022 1.09342e-005 -4.77083e-015 -0.0128344 0.00231293 8.58814e-005 0 0 -1.59028e-015 9.10456e-022 1.09342e-005 -4.77083e-015 -0.0160269 0.00298325 0.000859925 5.35154e-006 4.80739e-006 5.33816e-006 9.10456e-022 1.09342e-005 -4.77083e-015 -0.0125297 0.00308694 0.00280541 -6.36111e-015 7.95139e-015 -0 9.10456e-022 1.09342e-005 -4.77083e-015 6.36111e-015 -1.09342e-005 1.59028e-015 1.32417e-031 1.59028e-015 -4.77083e-015 12.5173 -5.80639 12.9272 -49.2636 -9.06416 -20.5512 31.8365 1.08528 8.95907 46.3773 -0.706698 -2.62658 -3.97569e-015 -3.18055e-015 -3.18055e-015 -5.56597e-015 3.18055e-015 -0 -1.59028e-015 0 -3.18055e-015 -3.97569e-015 -3.18055e-015 -3.18055e-015 0.0129196 0.00231738 -9.10683e-005 1.03368e-014 -4.13472e-014 6.36111e-015 -3.97569e-015 -3.18055e-015 -3.18055e-015 0.0163417 0.00303793 -0.000876343 7.45034e-006 -5.56212e-007 -1.52302e-006 -3.97569e-015 -3.18055e-015 -3.18055e-015 0.0145841 0.0036753 -0.00326681 3.97569e-015 0 -0 -3.97569e-015 -3.18055e-015 -3.18055e-015 -5.56597e-015 3.18055e-015 -0 -1.59028e-015 0 -3.18055e-015 -173.701 -29.9542 177.048 -129.747 41.7663 106.86 3.59782 -6.13306 21.5982 -1.76556e-031 -6.36111e-015 -1.59028e-015 98.0812 -25.4606 115.435 -158.367 32.885 121.333 16.1503 30.2748 13.447 -2.39504e-006 2.10436e-007 -7.44912e-007 
0.390431 70.6137 12.0212 -1.12329e-014 31.0008 -180 -0.617011 5.17555 -0.215899 -1.22187 10.3531 -0.377885 -1.22188 10.3531 -0.377886 12.1149 7.92393 -19.6983 11.1003 -36.0377 6.93137 -22.7433 -14.5343 -45.8522 86.1825 -4.86648 33.904 -23.9959 -25.1268 -6.91654 -55.7079 12.8748 12.0281 6.36111e-015 1.90833e-014 -1.90833e-014 1.90833e-014 1.90833e-014 -1.43125e-014 6.36111e-015 9.54166e-015 -1.27222e-014 6.36111e-015 1.90833e-014 -1.90833e-014 -0.0127879 0.00233427 8.65278e-005 1.59028e-014 -1.59028e-015 1.59028e-015 6.36111e-015 1.90833e-014 -1.90833e-014 -0.0160938 0.00300099 0.000859621 9.54166e-015 4.77083e-015 -1.59028e-015 6.36111e-015 1.90833e-014 -1.90833e-014 -0.0125522 0.00311164 0.00282978 -1.27222e-014 -3.18055e-015 -3.18055e-015 6.36111e-015 1.90833e-014 -1.90833e-014 1.90833e-014 1.90833e-014 -1.43125e-014 6.36111e-015 9.54166e-015 -1.27222e-014 13.643 -5.172 13.1591 -49.745 -8.7857 -20.6437 30.541 1.06182 8.9076 47.0293 -0.676231 -2.15612 -1.58514e-006 6.05772e-007 -4.44454e-006 1.03124e-005 -3.40725e-006 -1.69993e-006 -1.19271e-014 -3.18055e-015 3.18055e-015 -1.58514e-006 6.05772e-007 -4.44454e-006 0.0129651 0.00232301 -9.16784e-005 7.95139e-016 3.18055e-015 3.18055e-015 -1.58514e-006 6.05772e-007 -4.44454e-006 0.0163559 0.00303448 -0.000869881 -3.97569e-015 -3.18055e-015 -0 -1.58514e-006 6.05772e-007 -4.44454e-006 0.0146013 0.003679 -0.00326617 -2.33143e-006 6.3128e-008 1.66491e-006 -1.58514e-006 6.05772e-007 -4.44454e-006 1.03124e-005 -3.40725e-006 -1.69993e-006 -1.19271e-014 -3.18055e-015 3.18055e-015 -173.569 -29.8086 177.146 -129.967 41.6418 106.987 3.76203 -6.49711 21.6775 -3.18055e-015 -6.36111e-015 -0 97.7807 -25.4259 115.239 -158.34 32.9165 121.303 16.4612 29.9245 13.025 -4.83331e-006 -4.13821e-008 -9.42695e-008 
0.354299 70.8577 12.0234 -1.1183e-014 30.7007 -180 -0.617795 5.04031 -0.216502 -1.22353 10.0827 -0.38041 -1.22353 10.0827 -0.380411 12.1713 9.62255 -20.0681 10.9802 -35.7712 6.83679 -23.0385 -13.9729 -45.1367 86.1204 -5.13009 33.873 -24.4435 -25.5152 -7.14751 -55.2654 13.1116 11.8262 4.57433e-006 3.68745e-006 6.80472e-006 9.54166e-015 7.95139e-015 -1.59028e-015 3.18055e-015 -3.18055e-015 7.95139e-015 4.57433e-006 3.68745e-006 6.80472e-006 -0.0127843 0.00231683 8.73309e-005 6.36111e-015 0 -0 4.57433e-006 3.68745e-006 6.80472e-006 -0.0160978 0.0029962 0.000856897 -3.18055e-015 0 -3.18055e-015 4.57433e-006 3.68745e-006 6.80472e-006 -0.0125495 0.00310223 0.00280942 6.36111e-015 2.06736e-014 -1.90833e-014 4.57433e-006 3.68745e-006 6.80472e-006 9.54166e-015 7.95139e-015 -1.59028e-015 3.18055e-015 -3.18055e-015 7.95139e-015 14.7641 -4.53365 13.3781 -50.2249 -8.50554 -20.7336 29.2463 1.03858 8.85622 47.6808 -0.640417 -1.68617 -3.18055e-015 -6.36111e-015 -3.18055e-015 1.59028e-015 -6.36111e-015 -0 6.36111e-015 -3.38834e-006 -0 -3.18055e-015 -6.36111e-015 -3.18055e-015 0.0129653 0.00231247 -8.0589e-005 4.77083e-015 3.18055e-015 -3.18055e-015 -3.18055e-015 -6.36111e-015 -3.18055e-015 0.0163338 0.00303076 -0.000871533 -4.53455e-007 -4.48408e-006 -3.4803e-006 -3.18055e-015 -6.36111e-015 -3.18055e-015 0.0146215 0.00368403 -0.00326969 -7.95139e-016 0 -0 -3.18055e-015 -6.36111e-015 -3.18055e-015 1.59028e-015 -6.36111e-015 -0 6.36111e-015 -3.38834e-006 -0 -173.437 -29.6628 177.244 -130.185 41.517 107.113 3.92679 -6.86077 21.7579 1.01512e-006 -3.66918e-007 1.40975e-006 97.4807 -25.3901 115.044 -158.313 32.9483 121.272 16.7717 29.5728 12.6075 -1.20606e-005 -5.31677e-007 -9.18765e-007 
0.318164 71.1018 12.0258 -1.11335e-014 30.4006 -180 -0.618603 4.90514 -0.217102 -1.22525 9.81232 -0.38293 -1.22525 9.81234 -0.382931 12.2393 11.3213 -20.4418 10.861 -35.5043 6.74314 -23.34 -13.4155 -44.4205 86.1027 -5.3633 33.8454 -24.948 -25.9023 -7.38251 -54.8216 13.3467 11.6222 7.81854e-007 -9.8114e-006 -1.47316e-006 1.60255e-006 -1.12524e-006 2.15475e-006 -3.18055e-015 3.18055e-015 1.59028e-015 7.81854e-007 -9.8114e-006 -1.47316e-006 -0.0128088 0.00232145 8.10922e-005 -6.36111e-015 4.77083e-015 -1.59028e-015 7.81854e-007 -9.8114e-006 -1.47316e-006 -0.0161094 0.00300749 0.000855937 -1.27222e-014 1.59028e-015 -0 7.81854e-007 -9.8114e-006 -1.47316e-006 -0.0125705 0.00311655 0.00283117 6.36111e-015 -3.18055e-015 3.18055e-015 7.81854e-007 -9.8114e-006 -1.47316e-006 1.60255e-006 -1.12524e-006 2.15475e-006 -3.18055e-015 3.18055e-015 1.59028e-015 15.8806 -3.89192 13.5842 -50.7051 -8.22658 -20.8213 27.9535 1.01842 8.80332 48.3317 -0.599289 -1.21683 -3.83169e-006 1.61266e-006 -4.78836e-006 -1.81233e-006 -2.7699e-007 3.14192e-006 -2.25964e-006 -4.481e-006 -3.4003e-007 -3.83169e-006 1.61266e-006 -4.78836e-006 0.0129565 0.00231741 -8.14878e-005 -1.04761e-006 -1.21636e-006 -2.96559e-006 -3.83169e-006 1.61266e-006 -4.78836e-006 0.0163454 0.00304157 -0.000880431 -2.85965e-006 3.09801e-006 1.76178e-007 -3.83169e-006 1.61266e-006 -4.78836e-006 0.0145729 0.00367057 -0.00325537 -1.57126e-006 2.67257e-006 -4.44854e-006 -3.83169e-006 1.61266e-006 -4.78836e-006 -1.81233e-006 -2.7699e-007 3.14192e-006 -2.25964e-006 -4.481e-006 -3.4003e-007 -173.307 -29.5168 177.341 -130.402 41.3918 107.237 4.09207 -7.22404 21.8391 -5.63243e-006 4.83713e-006 -2.43404e-006 97.1814 -25.3535 114.85 -158.286 32.98 121.242 17.0756 29.2193 12.194 5.91384e-015 3.97569e-016 5.96354e-016 
0.282025 71.3459 12.0284 -1.10842e-014 30.1005 -180 -0.619437 4.77003 -0.2177 -1.22703 9.54209 -0.385446 -1.22703 9.54212 -0.385446 12.319 13.0192 -20.8198 10.7426 -35.2371 6.65041 -23.6477 -12.8623 -43.7035 86.0467 -5.62218 33.8144 -25.4098 -26.2871 -7.622 -54.3767 13.5804 11.4162 -6.36111e-015 0 3.18055e-015 -3.18055e-015 -1.59028e-015 4.77083e-015 1.60402e-006 -1.12726e-006 2.15357e-006 -6.36111e-015 0 3.18055e-015 -0.0128334 0.00232896 8.76445e-005 3.18055e-015 7.95139e-015 -4.77083e-015 -6.36111e-015 0 3.18055e-015 -0.0160781 0.00300983 0.000859055 -1.59028e-014 1.59028e-015 -6.36111e-015 -6.36111e-015 0 3.18055e-015 -0.0126196 0.00311879 0.00283157 3.48499e-006 1.85021e-006 3.73854e-006 -6.36111e-015 0 3.18055e-015 -3.18055e-015 -1.59028e-015 4.77083e-015 1.60402e-006 -1.12726e-006 2.15357e-006 16.9925 -3.24725 13.7773 -51.1802 -7.93973 -20.9058 26.6611 0.99209 8.75378 48.9819 -0.55285 -0.748265 2.94201e-014 -2.6985e-008 -1.27222e-014 9.97307e-006 1.6942e-007 -8.72621e-006 4.77083e-015 3.18055e-015 6.36111e-015 2.94201e-014 -2.6985e-008 -1.27222e-014 0.0129812 0.00231904 -9.42419e-005 -4.67789e-006 -1.97658e-006 3.31046e-006 2.94201e-014 -2.6985e-008 -1.27222e-014 0.0163043 0.00303228 -0.000882878 3.18055e-015 3.18055e-015 -3.18055e-015 2.94201e-014 -2.6985e-008 -1.27222e-014 0.0145873 0.00368092 -0.00326853 -7.37957e-006 4.45118e-006 -5.18945e-007 2.94201e-014 -2.6985e-008 -1.27222e-014 9.97307e-006 1.6942e-007 -8.72621e-006 4.77083e-015 3.18055e-015 6.36111e-015 -173.177 -29.3705 177.437 -130.619 41.2661 107.361 4.25796 -7.58705 21.9213 3.18055e-015 0 -0 96.8826 -25.316 114.658 -158.259 33.0119 121.211 17.3732 28.8645 11.7844 1.21141e-005 3.98489e-007 5.83952e-007 
